<svg width="414" height="155" xmlns="http://www.w3.org/2000/svg" xmlns:xlink="http://www.w3.org/1999/xlink" xml:space="preserve" overflow="hidden"><g transform="translate(-2839 -1666)"><g><g><g><path d="M24.2145 33.3349C18.0576 39.477 13.7814 40.271 13.7814 40.271 12.9666 45.3318 10.968 50.1285 7.94837 54.2706L9.26358 55.5864 17.5156 47.3338C17.1572 46.4955 17.5463 45.5254 18.3846 45.167 19.2229 44.8087 20.193 45.1978 20.5513 46.036 20.9097 46.8743 20.5206 47.8444 19.6823 48.2028 19.2678 48.38 18.799 48.38 18.3846 48.2028L10.1326 56.4554 11.4478 57.7706C15.59 54.7507 20.3869 52.7522 25.448 51.9376 25.448 51.9376 26.2371 47.6558 32.3792 41.502Z" transform="matrix(1 0 0 1.01696 3194 1705)"/><path d="M51.6248 1.18061C44.3113 9.04725 24.8229 30.4101 24.8229 30.4101L35.3224 40.9102C35.3224 40.9102 49.9236 25.0583 51.6248 23.4954Z" transform="matrix(1 0 0 1.01696 3194 1705)"/></g></g></g><text font-family="Calibri,Calibri_MSFontService,sans-serif" font-weight="700" font-size="73" transform="matrix(1 0 0 1 2883.08 1757)">Polyboard</text></g></svg>